<svg width="24" height="24" viewBox="0 0 24 24" fill="none" xmlns="http://www.w3.org/2000/svg">
<g id="flechas/Variant2">
<g id="upload-circle--arrow-circle-download-internet-network-server-up-upload">
<path id="Ellipse 387" d="M12 24C18.6274 24 24 18.6274 24 12C24 5.37258 18.6274 0 12 0C5.37258 0 0 5.37258 0 12C0 18.6274 5.37258 24 12 24Z" fill="#22C55E"/>
<g id="Vector 1267">
<path id="Vector" d="M12.606 4.96577L17.3939 9.75358C17.9339 10.2936 17.5514 11.2168 16.7878 11.2168H13.7142L13.7142 17.5714C13.7142 18.5182 12.9467 19.2857 12 19.2857C11.0532 19.2857 10.2857 18.5182 10.2857 17.5714L10.2857 11.2168H7.21214C6.44851 11.2168 6.06607 10.2936 6.60604 9.75358L11.3939 4.96577C11.7286 4.63104 12.2713 4.63104 12.606 4.96577Z" fill="white"/>
</g>
</g>
</g>
</svg>
