<svg width="24" height="24" viewBox="0 0 24 24" fill="none" xmlns="http://www.w3.org/2000/svg">
<g id="flechas/Variant2">
<g id="upload-circle--arrow-circle-download-internet-network-server-up-upload">
<path id="Ellipse 387" d="M12 -1.04907e-06C5.37259 -1.62846e-06 1.62846e-06 5.37258 1.04907e-06 12C4.69686e-07 18.6274 5.37258 24 12 24C18.6274 24 24 18.6274 24 12C24 5.37258 18.6274 -4.69686e-07 12 -1.04907e-06Z" fill="#EF4444"/>
<g id="Vector 1267">
<path id="Vector" d="M11.394 19.0342L6.60613 14.2464C6.06613 13.7064 6.44859 12.7832 7.21224 12.7832L10.2858 12.7832L10.2858 6.42855C10.2858 5.48175 11.0533 4.71427 12.0001 4.71427C12.9468 4.71427 13.7143 5.48175 13.7143 6.42856L13.7143 12.7832L16.7879 12.7832C17.5515 12.7832 17.9339 13.7064 17.394 14.2464L12.6061 19.0342C12.2714 19.369 11.7287 19.369 11.394 19.0342Z" fill="white"/>
</g>
</g>
</g>
</svg>
