<svg width="183" height="183" viewBox="0 0 183 183" fill="none" xmlns="http://www.w3.org/2000/svg">
<rect width="183" height="183" fill="#EDEDED"/>
<g id="Logo">
<rect x="-308" y="-465" width="800" height="800" rx="32" fill="#E4E4E7"/>
<g id="Layer_1">
<g clip-path="url(#clip0_81_338)">
<path id="Vector" d="M183 0H0V183H78.9059V160.652L35.1536 82.1311H63.1342L91.4573 133.942L119.863 82.1311H147.846L104.091 160.652V183H183V0ZM61.0471 62.7593C58.2781 65.5293 54.8567 66.9143 50.786 66.9143C46.7153 66.9143 43.2676 65.5303 40.4427 62.7593C37.6147 59.9903 36.2002 56.5689 36.2002 52.4982C36.2002 48.4275 37.6147 45.0092 40.4427 42.2392C43.2676 39.4692 46.7153 38.0832 50.786 38.0832C54.8567 38.0832 58.2781 39.4692 61.0471 42.2392C63.8161 45.0092 65.2031 48.4296 65.2031 52.4982C65.2031 56.5669 63.8151 59.9903 61.0471 62.7593ZM146.8 45.6362L126.048 52.545L146.8 59.3908V69.0482L113.763 56.952V48.0465L146.8 35.9503V45.6372V45.6362Z" fill="#64EE83"/>
<path id="Vector_2" d="M147.846 82.1311H119.863L91.4573 133.942L63.1342 82.1311H35.1536L78.9058 160.652V183H104.091V160.652L147.846 82.1311Z" fill="#1B4751"/>
<path id="Vector_3" d="M50.786 38.0842C46.7153 38.0842 43.2675 39.4702 40.4426 42.2402C37.6147 45.0102 36.2002 48.4306 36.2002 52.4992C36.2002 56.5679 37.6147 59.9913 40.4426 62.7603C43.2675 65.5303 46.7153 66.9153 50.786 66.9153C54.8567 66.9153 58.278 65.5313 61.047 62.7603C63.816 59.9913 65.2031 56.5699 65.2031 52.4992C65.2031 48.4286 63.815 45.0102 61.047 42.2402C58.279 39.4702 54.8567 38.0842 50.786 38.0842Z" fill="#1B4751"/>
<path id="Vector_4" d="M113.763 56.952L146.799 69.0482V59.3907L126.047 52.545L146.799 45.6362V35.9492L113.763 48.0465V56.952Z" fill="#1B4751"/>
</g>
</g>
</g>
<defs>
<clipPath id="clip0_81_338">
<rect width="183" height="183" fill="white"/>
</clipPath>
</defs>
</svg>
