<svg width="244" height="133" viewBox="0 0 244 133" fill="none" xmlns="http://www.w3.org/2000/svg">
<g id="Layer_1" clip-path="url(#clip0_193_1775)">
<path id="Vector" d="M45.4312 24.5061C49.417 24.5061 52.578 25.7668 54.9145 28.3035C57.2357 30.8402 58.4116 34.453 58.4116 39.1421V65.9543H47.5539V40.495C47.5539 38.2504 47.0194 36.5131 45.9657 35.2832C44.8967 34.0533 43.3696 33.423 41.3386 33.423C39.3075 33.423 37.7804 34.0994 36.4977 35.4677C35.2149 36.836 34.5735 38.6809 34.5735 41.0331V65.9389H23.7922V40.4796C23.7922 38.2197 23.273 36.467 22.2193 35.2525C21.1656 34.0226 19.608 33.423 17.5311 33.423C15.607 33.423 14.0035 34.0994 12.6902 35.4677C11.3922 36.836 10.7355 38.6809 10.7355 41.0331V65.9389H0V25.1057H10.2774V31.2091C11.2242 29.0414 12.6749 27.381 14.6296 26.228C16.5843 25.0749 18.936 24.4907 21.6695 24.4907C24.2503 24.4907 26.5105 25.0442 28.4346 26.1511C30.3587 27.258 31.8553 28.8877 32.909 31.0554C35.4134 26.6738 39.5824 24.4907 45.4159 24.4907L45.4312 24.5061Z" fill="#1B4751"/>
<path id="Vector_2" d="M45.4312 76.3778C49.417 76.3778 52.578 77.6385 54.9145 80.1752C57.2357 82.7119 58.4116 86.3247 58.4116 91.0138V117.826H47.5539V92.3667C47.5539 90.1221 47.0194 88.3849 45.9657 87.1549C44.8967 85.925 43.3696 85.2947 41.3386 85.2947C39.3075 85.2947 37.7804 85.9711 36.4977 87.3394C35.2149 88.7077 34.5735 90.5526 34.5735 92.9048V117.811H23.7922V92.3513C23.7922 90.0914 23.273 88.3387 22.2193 87.1242C21.1656 85.8943 19.608 85.2947 17.5311 85.2947C15.607 85.2947 14.0035 85.9711 12.6902 87.3394C11.3922 88.7077 10.7355 90.5526 10.7355 92.9048V117.811H0V76.9774H10.2774V83.0808C11.2242 80.9131 12.6749 79.2527 14.6296 78.0997C16.5843 76.9466 18.936 76.3624 21.6695 76.3624C24.2503 76.3624 26.5105 76.9159 28.4346 78.0228C30.3587 79.1297 31.8553 80.7594 32.909 82.9271C35.4134 78.5455 39.5824 76.3624 45.4159 76.3624L45.4312 76.3778Z" fill="#1B4751"/>
<path id="Vector_3" d="M85.6396 118.441C81.8524 118.441 78.447 117.626 75.408 116.012C72.3691 114.398 69.941 111.968 68.1238 108.725C66.2913 105.496 65.375 101.729 65.375 97.4247C65.375 93.12 66.2913 89.3534 68.1238 86.1249C69.9563 82.8964 72.3844 80.4673 75.408 78.8223C78.4317 77.1772 81.8524 76.3624 85.6396 76.3624C89.4268 76.3624 92.8323 77.1772 95.8865 78.8223C98.9407 80.4673 101.369 82.8964 103.201 86.1249C105.034 89.3534 105.95 93.12 105.95 97.4247C105.95 100.669 105.416 103.62 104.362 106.296C103.308 108.955 101.842 111.169 100.01 112.937C98.1618 114.705 96.0239 116.058 93.5653 117.011C91.1066 117.964 88.48 118.441 85.6549 118.441H85.6396ZM78.8746 106.203C80.646 108.263 82.9061 109.293 85.6396 109.293C88.3731 109.293 90.6332 108.263 92.4047 106.203C94.1761 104.143 95.0771 101.222 95.0771 97.4401C95.0771 93.6581 94.1914 90.6909 92.4047 88.6308C90.6332 86.5707 88.3731 85.5407 85.6396 85.5407C82.9061 85.5407 80.646 86.5707 78.8746 88.6308C77.1031 90.6909 76.2021 93.6274 76.2021 97.4401C76.2021 101.253 77.0879 104.143 78.8746 106.203Z" fill="#1B4751"/>
<path id="Vector_4" d="M113.754 117.826V76.9928H124.031V83.4806C125.161 81.2975 126.872 79.5602 129.178 78.2842C131.484 77.0081 134.187 76.3778 137.317 76.3778C141.608 76.3778 145.029 77.7307 147.579 80.4365C150.129 83.1423 151.397 87.0012 151.397 92.0285V117.826H140.539V93.612C140.539 90.9831 139.867 88.9383 138.508 87.4932C137.149 86.0326 135.271 85.3101 132.873 85.3101C130.476 85.3101 128.536 86.1095 126.933 87.6777C125.314 89.2612 124.52 91.3982 124.52 94.104V117.826H113.784H113.754Z" fill="#1B4751"/>
<path id="Vector_5" d="M197.821 95.6875V99.8538H169.661C169.997 102.913 170.959 105.25 172.578 106.864C174.196 108.479 176.258 109.278 178.793 109.278C180.687 109.278 182.29 108.878 183.603 108.064C184.917 107.249 185.879 106.126 186.505 104.681L196.935 106.572C195.805 110.385 193.652 113.306 190.475 115.366C187.284 117.411 183.39 118.441 178.793 118.441C172.96 118.441 168.149 116.55 164.362 112.783C160.575 109.017 158.681 103.897 158.681 97.4247C158.681 93.1815 159.597 89.4303 161.43 86.2018C163.262 82.9732 165.691 80.5288 168.745 78.8684C171.784 77.208 175.189 76.3778 178.946 76.3778C184.733 76.3778 189.315 78.0689 192.72 81.482C196.126 84.8796 197.821 89.6148 197.821 95.7029V95.6875ZM170.089 92.4436H187.268C186.887 89.9684 185.955 88.1081 184.489 86.8628C183.023 85.6175 181.145 84.9872 178.869 84.9872C176.594 84.9872 174.777 85.6175 173.25 86.8628C171.723 88.1081 170.669 89.9684 170.089 92.4436Z" fill="#1B4751"/>
<path id="Vector_6" d="M211.045 133C208.953 133 206.601 132.646 203.99 131.924V121.915C206.158 122.669 208.281 123.038 210.358 123.038C212.099 123.038 213.504 122.592 214.573 121.731C215.642 120.855 216.665 119.256 217.642 116.934L217.764 116.704L200.768 76.9927H213.045L222.941 101.514L232.256 76.9927H244L227.003 120.901C225.339 125.221 223.246 128.326 220.727 130.187C218.207 132.047 214.985 132.985 211.045 132.985V133Z" fill="#1B4751"/>
<path id="Vector_7" d="M72.0793 12.2069C70.8271 13.4675 69.2847 14.0979 67.4369 14.0979C65.5891 14.0979 64.0315 13.4675 62.764 12.2069C61.4812 10.9462 60.8398 9.39343 60.8398 7.53318C60.8398 5.67293 61.4812 4.12016 62.764 2.8595C64.0468 1.59884 65.6044 0.968506 67.4369 0.968506C69.2694 0.968506 70.8271 1.59884 72.0793 2.8595C73.3315 4.12016 73.9576 5.67293 73.9576 7.53318C73.9576 9.39343 73.3315 10.9462 72.0793 12.2069Z" fill="#1B4751"/>
<path id="Vector_8" d="M79.9592 79.8831V60.2659L60.168 24.5061H72.8276L85.64 48.1051L98.4982 24.5061H111.158L91.3666 60.2659V79.8831H79.9744H79.9592Z" fill="#1B4751"/>
<path id="Vector_9" d="M95.9326 5.50387L110.883 0V4.41232L101.491 7.56398L110.883 10.6849V15.0818L95.9326 9.57797V5.51925V5.50387Z" fill="#1B4751"/>
</g>
<defs>
<clipPath id="clip0_193_1775">
<rect width="244" height="133" fill="white"/>
</clipPath>
</defs>
</svg>
